<?xml version="1.0" encoding="UTF-8"?>
<svg id="Layer_2" data-name="Layer 2" xmlns="http://www.w3.org/2000/svg" viewBox="0 0 282.04 53.32">
  <defs>
    <style>
      .cls-1 {
        fill: #231f20;
      }
    </style>
  </defs>
  <g id="Layer_1-2" data-name="Layer 1">
    <path class="cls-1" d="M279.79,35.71c-1.5-1.93-3.64-3.38-6.41-4.35-2.11-.74-5.86-1.48-11.24-2.22-2.93-.4-4.82-.81-5.66-1.23-1.11-.58-1.66-1.17-1.66-1.78,0-.53.41-1.02,1.23-1.46,1.85-1.03,4.34-1.54,7.48-1.54,1.58,0,3.1.21,4.55.61,1.45.41,2.84,1.02,4.16,1.84v1.86h8.17v-12.83h-8.17v1.92c-1.1-.41-2.22-.75-3.38-.99-1.73-.36-3.53-.53-5.4-.53-5.38,0-9.74,1.32-13.06,3.96-2.46,1.93-3.68,4.34-3.68,7.24s1.09,5.2,3.29,7.12c2.19,1.95,6.54,3.27,13.06,3.96,4.38.47,7.27,1.06,8.67,1.74,1.4.69,2.1,1.56,2.1,2.61,0,.63-.49,1.24-1.46,1.82-2.06,1.16-4.95,1.74-8.67,1.74-2.27,0-4.28-.27-6.02-.81-1.02-.32-1.94-.73-2.79-1.23v-4.67h-8.17v4.65h-5.1V0h-20.12v8.17h11.94v34.98h-6.23c1.56-2.68,2.46-5.74,2.46-8.99,0-10.58-9.4-19.16-20.99-19.16-6.94,0-13.08,3.09-16.9,7.84-3.82-4.74-9.96-7.84-16.9-7.84-2.34,0-4.59.37-6.69,1.01V3.34h-43.77v12.67c-2.1-.65-4.35-1.01-6.69-1.01-11.59,0-20.99,8.58-20.99,19.16,0,3.25.89,6.3,2.46,8.99h-5.88V0h-20.12v8.17h11.94v34.98h-25.17v-13.32l10.7-6.18,5.77,6.26,6.01-5.54-4.52-4.91h0l-5.68-6.16-5.72,3.3-6.56,3.79v-5h-16.35v8.17h8.17v19.58h-5.08L30.68,3.41v-.06H7.64v8.17h10.72l-12.75,31.63H0v8.17h22.16v-8.17h-7.74l1.94-4.81h19.57l1.94,4.81h-7.2v8.17h70.42v-5.47c3.84,4.54,9.84,7.47,16.6,7.47s12.73-2.92,16.57-7.43v5.43h24.01v-5.43c3.84,4.51,9.83,7.43,16.57,7.43s13.08-3.09,16.9-7.84c3.82,4.74,9.96,7.84,16.9,7.84s12.73-2.92,16.57-7.43v5.43h27.65c1.4.59,2.91,1.05,4.53,1.39,1.99.41,4.16.61,6.51.61,5.86,0,10.62-1.41,14.29-4.24,2.56-1.95,3.84-4.38,3.84-7.28,0-2.14-.75-4.17-2.26-6.1ZM19.66,30.17l6.49-16.11,6.49,16.11h-12.99ZM117.7,45.15c-7.07,0-12.82-4.93-12.82-10.99s5.75-10.99,12.82-10.99,12.82,4.93,12.82,10.99-5.75,10.99-12.82,10.99ZM132.56,20.64v-9.12h9.62v31.63h-5.95c1.56-2.68,2.46-5.74,2.46-8.99,0-5.28-2.34-10.06-6.12-13.52ZM150.36,43.15V11.52h9.62v9.12c-3.78,3.47-6.12,8.24-6.12,13.52,0,3.25.89,6.3,2.46,8.99h-5.95ZM174.84,45.15c-7.07,0-12.82-4.93-12.82-10.99s5.75-10.99,12.82-10.99,12.82,4.93,12.82,10.99-5.75,10.99-12.82,10.99ZM208.65,45.15c-7.07,0-12.82-4.93-12.82-10.99s5.75-10.99,12.82-10.99,12.82,4.93,12.82,10.99-5.75,10.99-12.82,10.99Z"/>
  </g>
</svg>